<svg viewBox="0 0 20 19" xmlns="http://www.w3.org/2000/svg">
<path fill-rule="evenodd" clip-rule="evenodd" d="M0.418418 0.402728C0.97631 -0.134243 1.88083 -0.134243 2.43872 0.402728L10 7.68046L17.5613 0.402727C18.1192 -0.134244 19.0237 -0.134244 19.5816 0.402727C20.1395 0.939698 20.1395 1.8103 19.5816 2.34727L11.0102 10.5973C10.4523 11.1342 9.54774 11.1342 8.98985 10.5973L0.418419 2.34727C-0.139473 1.8103 -0.139473 0.939698 0.418418 0.402728Z"/>
<path fill-rule="evenodd" clip-rule="evenodd" d="M19.5816 18.5973C19.0237 19.1342 18.1192 19.1342 17.5613 18.5973L10 11.3195L2.43872 18.5973C1.88083 19.1342 0.97631 19.1342 0.418418 18.5973C-0.139474 18.0603 -0.139474 17.1897 0.418419 16.6527L8.98985 8.40273C9.54774 7.86576 10.4523 7.86576 11.0102 8.40273L19.5816 16.6527C20.1395 17.1897 20.1395 18.0603 19.5816 18.5973Z"/>
</svg>
