<svg width="380" height="241" viewBox="0 0 380 241" fill="none" xmlns="http://www.w3.org/2000/svg">
<mask id="mask0" mask-type="alpha" maskUnits="userSpaceOnUse" x="0" y="0" width="380" height="241">
<rect width="380" height="241" fill="#2E2E2E"/>
</mask>
<g mask="url(#mask0)">
<path d="M-99 505.186L227.415 309.5L-99 113.875L-99 86.6028L270.725 308.274L-99 529.884L-99 505.186ZM-99 60.0047L-99 35L313.789 282.412L292.87 294.975L-99 60.0047ZM335.996 295.711L359 309.5L-99 584L-99 556.483L335.996 295.711Z" fill="#373737"/>
<path d="M717 242.186L390.585 46.5L717 -149.125L717 -176.397L347.275 45.2743L717 266.884L717 242.186ZM717 -202.995L717 -228L304.211 19.4116L325.13 31.9752L717 -202.995ZM282.004 32.7107L259 46.5L717 321L717 293.483L282.004 32.7107Z" fill="#373737"/>
</g>
</svg>
