<svg width="29" height="30" viewBox="0 0 29 30" fill="none" xmlns="http://www.w3.org/2000/svg">
<rect width="29" height="30" fill="#2E2E2E"/>
<path d="M14.989 19.9976C14.7558 19.9981 14.5297 19.9168 14.3501 19.7678L8.36062 14.7703C8.15676 14.6007 8.02856 14.3569 8.00422 14.0926C7.97989 13.8283 8.06141 13.5652 8.23085 13.3611C8.40029 13.157 8.64378 13.0286 8.90774 13.0042C9.1717 12.9799 9.43452 13.0615 9.63838 13.2311L14.989 17.7088L20.3397 13.3911C20.4418 13.308 20.5593 13.246 20.6854 13.2086C20.8115 13.1712 20.9438 13.1591 21.0746 13.173C21.2054 13.187 21.3321 13.2267 21.4475 13.2898C21.563 13.3529 21.6648 13.4383 21.7472 13.541C21.8386 13.6437 21.9079 13.7643 21.9506 13.8951C21.9933 14.0259 22.0086 14.1641 21.9954 14.3011C21.9823 14.4381 21.9411 14.5709 21.8743 14.6912C21.8076 14.8115 21.7167 14.9167 21.6074 15.0002L15.6179 19.8277C15.4332 19.9532 15.2117 20.013 14.989 19.9976Z" fill="white"/>
</svg>
