<svg width="780" height="241" viewBox="0 0 780 241" fill="none" xmlns="http://www.w3.org/2000/svg">
<mask id="mask0" mask-type="alpha" maskUnits="userSpaceOnUse" x="0" y="0" width="780" height="241">
<rect width="780" height="241" fill="#00C25A"/>
</mask>
<g mask="url(#mask0)">
<path d="M471 368.186L797.415 172.5L471 -23.1249L471 -50.3972L840.725 171.274L471 392.884L471 368.186ZM471 -76.9953L471 -102L883.789 145.412L862.87 157.975L471 -76.9953ZM905.996 158.711L929 172.5L471 447L471 419.483L905.996 158.711Z" fill="#00BA56"/>
<path d="M-309 236.186L17.4155 40.5L-309 -155.125L-309 -182.397L60.7249 39.2743L-309 260.884L-309 236.186ZM-309 -208.995L-309 -234L103.789 13.4116L82.8703 25.9752L-309 -208.995ZM125.996 26.7107L149 40.5L-309 315L-309 287.483L125.996 26.7107Z" fill="#00BA56"/>
</g>
</svg>
